# xmcd
#
# Track frame offsets: 
#        150
#        18298
#        32643
#        45070
#        61968
#        84098
#        103395
#        120720
#        139718
#        157715
#        179503
#        194080
#        212205
#
# Disc length: 3022 seconds
#
# Revision: 5
# Processed by: cddbd v1.5.2PL0 Copyright (c) Steve Scherf et al.
# Submitted via: ExactAudioCopy v1.0b3
#
DISCID=a70bcc0d
DTITLE=Price, Toni - Hey
DYEAR=1995
DGENRE=Blues
TTITLE0=Dean And Brandy
TTITLE1=Something
TTITLE2=Hey
TTITLE3=Edge Of The Night
TTITLE4=Misty Moonlight
TTITLE5=Too Close To You
TTITLE6=I Don't Want You
TTITLE7=Boozy Blues
TTITLE8=Tumbleweed
TTITLE9=Bluebird
TTITLE10=New York City 23rd Of July
TTITLE11=Obviously 5 Believers
TTITLE12=Too Much Coffee
EXTD=YEAR: 1995
EXTT0=
EXTT1=
EXTT2=
EXTT3=
EXTT4=
EXTT5=
EXTT6=
EXTT7=
EXTT8=
EXTT9=
EXTT10=
EXTT11=
EXTT12=
PLAYORDER=
